<?xml version="1.0" encoding="utf-8" standalone="no"?>
<!DOCTYPE svg PUBLIC "-//W3C//DTD SVG 1.1//EN"
  "http://www.w3.org/Graphics/SVG/1.1/DTD/svg11.dtd">
<svg xmlns:xlink="http://www.w3.org/1999/xlink" width="725.76pt" height="309.672pt" viewBox="0 0 725.76 309.672" xmlns="http://www.w3.org/2000/svg" version="1.1">
 <metadata>
  <rdf:RDF xmlns:dc="http://purl.org/dc/elements/1.1/" xmlns:cc="http://creativecommons.org/ns#" xmlns:rdf="http://www.w3.org/1999/02/22-rdf-syntax-ns#">
   <cc:Work>
    <dc:type rdf:resource="http://purl.org/dc/dcmitype/StillImage"/>
    <dc:date>2026-03-01T16:43:46.027658</dc:date>
    <dc:format>image/svg+xml</dc:format>
    <dc:creator>
     <cc:Agent>
      <dc:title>Matplotlib v3.10.8, https://matplotlib.org/</dc:title>
     </cc:Agent>
    </dc:creator>
   </cc:Work>
  </rdf:RDF>
 </metadata>
 <defs>
  <style type="text/css">*{stroke-linejoin: round; stroke-linecap: butt}</style>
 </defs>
 <g id="figure_1">
  <g id="patch_1">
   <path d="M 0 309.672
L 725.76 309.672
L 725.76 0
L 0 0
z
" style="fill: #f7f9fc"/>
  </g>
  <g id="axes_1">
   <g id="patch_2">
    <path d="M 185.474485 42.609569
L 230.0793 42.609569
L 230.0793 20.164282
L 185.474485 20.164282
z
" clip-path="url(#pdc9e37fd2a)" style="fill: #23f792; stroke: #f7f9fc; stroke-width: 0.7; stroke-linejoin: miter"/>
   </g>
   <g id="patch_3">
    <path d="M 236.161775 42.609569
L 280.76659 42.609569
L 280.76659 20.164282
L 236.161775 20.164282
z
" clip-path="url(#pdc9e37fd2a)" style="fill: #6d65fe; stroke: #f7f9fc; stroke-width: 0.7; stroke-linejoin: miter"/>
   </g>
   <g id="patch_4">
    <path d="M 286.849065 42.609569
L 331.45388 42.609569
L 331.45388 20.164282
L 286.849065 20.164282
z
" clip-path="url(#pdc9e37fd2a)" style="fill: #e62b34; stroke: #f7f9fc; stroke-width: 0.7; stroke-linejoin: miter"/>
   </g>
   <g id="patch_5">
    <path d="M 337.536355 42.609569
L 382.14117 42.609569
L 382.14117 20.164282
L 337.536355 20.164282
z
" clip-path="url(#pdc9e37fd2a)" style="fill: #9da2fb; stroke: #f7f9fc; stroke-width: 0.7; stroke-linejoin: miter"/>
   </g>
   <g id="patch_6">
    <path d="M 388.223645 42.609569
L 432.82846 42.609569
L 432.82846 20.164282
L 388.223645 20.164282
z
" clip-path="url(#pdc9e37fd2a)" style="fill: #a38528; stroke: #f7f9fc; stroke-width: 0.7; stroke-linejoin: miter"/>
   </g>
   <g id="patch_7">
    <path d="M 438.910935 42.609569
L 483.515751 42.609569
L 483.515751 20.164282
L 438.910935 20.164282
z
" clip-path="url(#pdc9e37fd2a)" style="fill: #fcac11; stroke: #f7f9fc; stroke-width: 0.7; stroke-linejoin: miter"/>
   </g>
   <g id="patch_8">
    <path d="M 489.598225 42.609569
L 534.203041 42.609569
L 534.203041 20.164282
L 489.598225 20.164282
z
" clip-path="url(#pdc9e37fd2a)" style="fill: #2a9c91; stroke: #f7f9fc; stroke-width: 0.7; stroke-linejoin: miter"/>
   </g>
   <g id="patch_9">
    <path d="M 540.285515 42.609569
L 584.890331 42.609569
L 584.890331 20.164282
L 540.285515 20.164282
z
" clip-path="url(#pdc9e37fd2a)" style="fill: #37c6a8; stroke: #f7f9fc; stroke-width: 0.7; stroke-linejoin: miter"/>
   </g>
   <g id="patch_10">
    <path d="M 185.474485 75.617343
L 230.0793 75.617343
L 230.0793 53.172056
L 185.474485 53.172056
z
" clip-path="url(#pdc9e37fd2a)" style="fill: #4303af; stroke: #f7f9fc; stroke-width: 0.7; stroke-linejoin: miter"/>
   </g>
   <g id="patch_11">
    <path d="M 236.161775 75.617343
L 280.76659 75.617343
L 280.76659 53.172056
L 236.161775 53.172056
z
" clip-path="url(#pdc9e37fd2a)" style="fill: #cd9c1f; stroke: #f7f9fc; stroke-width: 0.7; stroke-linejoin: miter"/>
   </g>
   <g id="patch_12">
    <path d="M 286.849065 75.617343
L 331.45388 75.617343
L 331.45388 53.172056
L 286.849065 53.172056
z
" clip-path="url(#pdc9e37fd2a)" style="fill: #8d180e; stroke: #f7f9fc; stroke-width: 0.7; stroke-linejoin: miter"/>
   </g>
   <g id="patch_13">
    <path d="M 337.536355 75.617343
L 382.14117 75.617343
L 382.14117 53.172056
L 337.536355 53.172056
z
" clip-path="url(#pdc9e37fd2a)" style="fill: #4a84cc; stroke: #f7f9fc; stroke-width: 0.7; stroke-linejoin: miter"/>
   </g>
   <g id="patch_14">
    <path d="M 388.223645 75.617343
L 432.82846 75.617343
L 432.82846 53.172056
L 388.223645 53.172056
z
" clip-path="url(#pdc9e37fd2a)" style="fill: #5a6a09; stroke: #f7f9fc; stroke-width: 0.7; stroke-linejoin: miter"/>
   </g>
   <g id="patch_15">
    <path d="M 438.910935 75.617343
L 483.515751 75.617343
L 483.515751 53.172056
L 438.910935 53.172056
z
" clip-path="url(#pdc9e37fd2a)" style="fill: #cf2872; stroke: #f7f9fc; stroke-width: 0.7; stroke-linejoin: miter"/>
   </g>
   <g id="patch_16">
    <path d="M 489.598225 75.617343
L 534.203041 75.617343
L 534.203041 53.172056
L 489.598225 53.172056
z
" clip-path="url(#pdc9e37fd2a)" style="fill: #3dbca7; stroke: #f7f9fc; stroke-width: 0.7; stroke-linejoin: miter"/>
   </g>
   <g id="patch_17">
    <path d="M 540.285515 75.617343
L 584.890331 75.617343
L 584.890331 53.172056
L 540.285515 53.172056
z
" clip-path="url(#pdc9e37fd2a)" style="fill: #6e086b; stroke: #f7f9fc; stroke-width: 0.7; stroke-linejoin: miter"/>
   </g>
   <g id="patch_18">
    <path d="M 185.474485 108.625117
L 230.0793 108.625117
L 230.0793 86.17983
L 185.474485 86.17983
z
" clip-path="url(#pdc9e37fd2a)" style="fill: #d2ebff; stroke: #f7f9fc; stroke-width: 0.7; stroke-linejoin: miter"/>
   </g>
   <g id="patch_19">
    <path d="M 236.161775 108.625117
L 280.76659 108.625117
L 280.76659 86.17983
L 236.161775 86.17983
z
" clip-path="url(#pdc9e37fd2a)" style="fill: #88cafc; stroke: #f7f9fc; stroke-width: 0.7; stroke-linejoin: miter"/>
   </g>
   <g id="patch_20">
    <path d="M 286.849065 108.625117
L 331.45388 108.625117
L 331.45388 86.17983
L 286.849065 86.17983
z
" clip-path="url(#pdc9e37fd2a)" style="fill: #404066; stroke: #f7f9fc; stroke-width: 0.7; stroke-linejoin: miter"/>
   </g>
   <g id="patch_21">
    <path d="M 337.536355 108.625117
L 382.14117 108.625117
L 382.14117 86.17983
L 337.536355 86.17983
z
" clip-path="url(#pdc9e37fd2a)" style="fill: #2b2c41; stroke: #f7f9fc; stroke-width: 0.7; stroke-linejoin: miter"/>
   </g>
   <g id="patch_22">
    <path d="M 388.223645 108.625117
L 432.82846 108.625117
L 432.82846 86.17983
L 388.223645 86.17983
z
" clip-path="url(#pdc9e37fd2a)" style="fill: #edcc6f; stroke: #f7f9fc; stroke-width: 0.7; stroke-linejoin: miter"/>
   </g>
   <g id="patch_23">
    <path d="M 185.474485 141.63289
L 230.0793 141.63289
L 230.0793 119.187604
L 185.474485 119.187604
z
" clip-path="url(#pdc9e37fd2a)" style="fill: #30598a; stroke: #f7f9fc; stroke-width: 0.7; stroke-linejoin: miter"/>
   </g>
   <g id="patch_24">
    <path d="M 236.161775 141.63289
L 280.76659 141.63289
L 280.76659 119.187604
L 236.161775 119.187604
z
" clip-path="url(#pdc9e37fd2a)" style="fill: #72bfed; stroke: #f7f9fc; stroke-width: 0.7; stroke-linejoin: miter"/>
   </g>
   <g id="patch_25">
    <path d="M 286.849065 141.63289
L 331.45388 141.63289
L 331.45388 119.187604
L 286.849065 119.187604
z
" clip-path="url(#pdc9e37fd2a)" style="fill: #e27a37; stroke: #f7f9fc; stroke-width: 0.7; stroke-linejoin: miter"/>
   </g>
   <g id="patch_26">
    <path d="M 337.536355 141.63289
L 382.14117 141.63289
L 382.14117 119.187604
L 337.536355 119.187604
z
" clip-path="url(#pdc9e37fd2a)" style="fill: #404066; stroke: #f7f9fc; stroke-width: 0.7; stroke-linejoin: miter"/>
   </g>
   <g id="patch_27">
    <path d="M 388.223645 141.63289
L 432.82846 141.63289
L 432.82846 119.187604
L 388.223645 119.187604
z
" clip-path="url(#pdc9e37fd2a)" style="fill: #edcc6f; stroke: #f7f9fc; stroke-width: 0.7; stroke-linejoin: miter"/>
   </g>
   <g id="patch_28">
    <path d="M 438.910935 141.63289
L 483.515751 141.63289
L 483.515751 119.187604
L 438.910935 119.187604
z
" clip-path="url(#pdc9e37fd2a)" style="fill: #8f9fd8; stroke: #f7f9fc; stroke-width: 0.7; stroke-linejoin: miter"/>
   </g>
   <g id="patch_29">
    <path d="M 489.598225 141.63289
L 534.203041 141.63289
L 534.203041 119.187604
L 489.598225 119.187604
z
" clip-path="url(#pdc9e37fd2a)" style="fill: #9c5e33; stroke: #f7f9fc; stroke-width: 0.7; stroke-linejoin: miter"/>
   </g>
   <g id="patch_30">
    <path d="M 540.285515 141.63289
L 584.890331 141.63289
L 584.890331 119.187604
L 540.285515 119.187604
z
" clip-path="url(#pdc9e37fd2a)" style="fill: #2b2c41; stroke: #f7f9fc; stroke-width: 0.7; stroke-linejoin: miter"/>
   </g>
   <g id="patch_31">
    <path d="M 590.972806 141.63289
L 635.577621 141.63289
L 635.577621 119.187604
L 590.972806 119.187604
z
" clip-path="url(#pdc9e37fd2a)" style="fill: #88cafc; stroke: #f7f9fc; stroke-width: 0.7; stroke-linejoin: miter"/>
   </g>
   <g id="patch_32">
    <path d="M 641.660096 141.63289
L 686.264911 141.63289
L 686.264911 119.187604
L 641.660096 119.187604
z
" clip-path="url(#pdc9e37fd2a)" style="fill: #a97d45; stroke: #f7f9fc; stroke-width: 0.7; stroke-linejoin: miter"/>
   </g>
   <g id="patch_33">
    <path d="M 185.474485 174.640664
L 230.0793 174.640664
L 230.0793 152.195378
L 185.474485 152.195378
z
" clip-path="url(#pdc9e37fd2a)" style="fill: #fffad8; stroke: #f7f9fc; stroke-width: 0.7; stroke-linejoin: miter"/>
   </g>
   <g id="patch_34">
    <path d="M 236.161775 174.640664
L 280.76659 174.640664
L 280.76659 152.195378
L 236.161775 152.195378
z
" clip-path="url(#pdc9e37fd2a)" style="fill: #ffd08d; stroke: #f7f9fc; stroke-width: 0.7; stroke-linejoin: miter"/>
   </g>
   <g id="patch_35">
    <path d="M 286.849065 174.640664
L 331.45388 174.640664
L 331.45388 152.195378
L 286.849065 152.195378
z
" clip-path="url(#pdc9e37fd2a)" style="fill: #ffb070; stroke: #f7f9fc; stroke-width: 0.7; stroke-linejoin: miter"/>
   </g>
   <g id="patch_36">
    <path d="M 337.536355 174.640664
L 382.14117 174.640664
L 382.14117 152.195378
L 337.536355 152.195378
z
" clip-path="url(#pdc9e37fd2a)" style="fill: #9c5e33; stroke: #f7f9fc; stroke-width: 0.7; stroke-linejoin: miter"/>
   </g>
   <g id="patch_37">
    <path d="M 388.223645 174.640664
L 432.82846 174.640664
L 432.82846 152.195378
L 388.223645 152.195378
z
" clip-path="url(#pdc9e37fd2a)" style="fill: #46362a; stroke: #f7f9fc; stroke-width: 0.7; stroke-linejoin: miter"/>
   </g>
   <g id="patch_38">
    <path d="M 185.474485 207.648438
L 230.0793 207.648438
L 230.0793 185.203152
L 185.474485 185.203152
z
" clip-path="url(#pdc9e37fd2a)" style="fill: #0072b2; stroke: #f7f9fc; stroke-width: 0.7; stroke-linejoin: miter"/>
   </g>
   <g id="patch_39">
    <path d="M 236.161775 207.648438
L 280.76659 207.648438
L 280.76659 185.203152
L 236.161775 185.203152
z
" clip-path="url(#pdc9e37fd2a)" style="fill: #e69f00; stroke: #f7f9fc; stroke-width: 0.7; stroke-linejoin: miter"/>
   </g>
   <g id="patch_40">
    <path d="M 286.849065 207.648438
L 331.45388 207.648438
L 331.45388 185.203152
L 286.849065 185.203152
z
" clip-path="url(#pdc9e37fd2a)" style="fill: #009e73; stroke: #f7f9fc; stroke-width: 0.7; stroke-linejoin: miter"/>
   </g>
   <g id="patch_41">
    <path d="M 337.536355 207.648438
L 382.14117 207.648438
L 382.14117 185.203152
L 337.536355 185.203152
z
" clip-path="url(#pdc9e37fd2a)" style="fill: #d55e00; stroke: #f7f9fc; stroke-width: 0.7; stroke-linejoin: miter"/>
   </g>
   <g id="patch_42">
    <path d="M 388.223645 207.648438
L 432.82846 207.648438
L 432.82846 185.203152
L 388.223645 185.203152
z
" clip-path="url(#pdc9e37fd2a)" style="fill: #cc79a7; stroke: #f7f9fc; stroke-width: 0.7; stroke-linejoin: miter"/>
   </g>
   <g id="patch_43">
    <path d="M 438.910935 207.648438
L 483.515751 207.648438
L 483.515751 185.203152
L 438.910935 185.203152
z
" clip-path="url(#pdc9e37fd2a)" style="fill: #56b4e9; stroke: #f7f9fc; stroke-width: 0.7; stroke-linejoin: miter"/>
   </g>
   <g id="patch_44">
    <path d="M 489.598225 207.648438
L 534.203041 207.648438
L 534.203041 185.203152
L 489.598225 185.203152
z
" clip-path="url(#pdc9e37fd2a)" style="fill: #f0e442; stroke: #f7f9fc; stroke-width: 0.7; stroke-linejoin: miter"/>
   </g>
   <g id="patch_45">
    <path d="M 540.285515 207.648438
L 584.890331 207.648438
L 584.890331 185.203152
L 540.285515 185.203152
z
" clip-path="url(#pdc9e37fd2a)" style="stroke: #f7f9fc; stroke-width: 0.7; stroke-linejoin: miter"/>
   </g>
   <g id="patch_46">
    <path d="M 185.474485 240.656212
L 230.0793 240.656212
L 230.0793 218.210926
L 185.474485 218.210926
z
" clip-path="url(#pdc9e37fd2a)" style="fill: #56b4e9; stroke: #f7f9fc; stroke-width: 0.7; stroke-linejoin: miter"/>
   </g>
   <g id="patch_47">
    <path d="M 236.161775 240.656212
L 280.76659 240.656212
L 280.76659 218.210926
L 236.161775 218.210926
z
" clip-path="url(#pdc9e37fd2a)" style="fill: #e69f00; stroke: #f7f9fc; stroke-width: 0.7; stroke-linejoin: miter"/>
   </g>
   <g id="patch_48">
    <path d="M 286.849065 240.656212
L 331.45388 240.656212
L 331.45388 218.210926
L 286.849065 218.210926
z
" clip-path="url(#pdc9e37fd2a)" style="fill: #009e73; stroke: #f7f9fc; stroke-width: 0.7; stroke-linejoin: miter"/>
   </g>
   <g id="patch_49">
    <path d="M 337.536355 240.656212
L 382.14117 240.656212
L 382.14117 218.210926
L 337.536355 218.210926
z
" clip-path="url(#pdc9e37fd2a)" style="fill: #d55e00; stroke: #f7f9fc; stroke-width: 0.7; stroke-linejoin: miter"/>
   </g>
   <g id="patch_50">
    <path d="M 388.223645 240.656212
L 432.82846 240.656212
L 432.82846 218.210926
L 388.223645 218.210926
z
" clip-path="url(#pdc9e37fd2a)" style="fill: #cc79a7; stroke: #f7f9fc; stroke-width: 0.7; stroke-linejoin: miter"/>
   </g>
   <g id="patch_51">
    <path d="M 438.910935 240.656212
L 483.515751 240.656212
L 483.515751 218.210926
L 438.910935 218.210926
z
" clip-path="url(#pdc9e37fd2a)" style="fill: #7fd6ff; stroke: #f7f9fc; stroke-width: 0.7; stroke-linejoin: miter"/>
   </g>
   <g id="patch_52">
    <path d="M 489.598225 240.656212
L 534.203041 240.656212
L 534.203041 218.210926
L 489.598225 218.210926
z
" clip-path="url(#pdc9e37fd2a)" style="fill: #f0e442; stroke: #f7f9fc; stroke-width: 0.7; stroke-linejoin: miter"/>
   </g>
   <g id="patch_53">
    <path d="M 540.285515 240.656212
L 584.890331 240.656212
L 584.890331 218.210926
L 540.285515 218.210926
z
" clip-path="url(#pdc9e37fd2a)" style="fill: #f2f4f8; stroke: #f7f9fc; stroke-width: 0.7; stroke-linejoin: miter"/>
   </g>
   <g id="patch_54">
    <path d="M 185.474485 273.663986
L 230.0793 273.663986
L 230.0793 251.2187
L 185.474485 251.2187
z
" clip-path="url(#pdc9e37fd2a)" style="fill: #30598a; stroke: #f7f9fc; stroke-width: 0.7; stroke-linejoin: miter"/>
   </g>
   <g id="patch_55">
    <path d="M 236.161775 273.663986
L 280.76659 273.663986
L 280.76659 251.2187
L 236.161775 251.2187
z
" clip-path="url(#pdc9e37fd2a)" style="fill: #72bfed; stroke: #f7f9fc; stroke-width: 0.7; stroke-linejoin: miter"/>
   </g>
   <g id="patch_56">
    <path d="M 286.849065 273.663986
L 331.45388 273.663986
L 331.45388 251.2187
L 286.849065 251.2187
z
" clip-path="url(#pdc9e37fd2a)" style="fill: #e4dcbd; stroke: #f7f9fc; stroke-width: 0.7; stroke-linejoin: miter"/>
   </g>
   <g id="patch_57">
    <path d="M 337.536355 273.663986
L 382.14117 273.663986
L 382.14117 251.2187
L 337.536355 251.2187
z
" clip-path="url(#pdc9e37fd2a)" style="fill: #f1b873; stroke: #f7f9fc; stroke-width: 0.7; stroke-linejoin: miter"/>
   </g>
   <g id="patch_58">
    <path d="M 388.223645 273.663986
L 432.82846 273.663986
L 432.82846 251.2187
L 388.223645 251.2187
z
" clip-path="url(#pdc9e37fd2a)" style="fill: #e27a37; stroke: #f7f9fc; stroke-width: 0.7; stroke-linejoin: miter"/>
   </g>
   <g id="patch_59">
    <path d="M 185.474485 306.67176
L 230.0793 306.67176
L 230.0793 284.226474
L 185.474485 284.226474
z
" clip-path="url(#pdc9e37fd2a)" style="fill: #8f9fd8; stroke: #f7f9fc; stroke-width: 0.7; stroke-linejoin: miter"/>
   </g>
   <g id="patch_60">
    <path d="M 236.161775 306.67176
L 280.76659 306.67176
L 280.76659 284.226474
L 236.161775 284.226474
z
" clip-path="url(#pdc9e37fd2a)" style="fill: #201a3f; stroke: #f7f9fc; stroke-width: 0.7; stroke-linejoin: miter"/>
   </g>
   <g id="patch_61">
    <path d="M 286.849065 306.67176
L 331.45388 306.67176
L 331.45388 284.226474
L 286.849065 284.226474
z
" clip-path="url(#pdc9e37fd2a)" style="fill: #a97d45; stroke: #f7f9fc; stroke-width: 0.7; stroke-linejoin: miter"/>
   </g>
   <g id="patch_62">
    <path d="M 337.536355 306.67176
L 382.14117 306.67176
L 382.14117 284.226474
L 337.536355 284.226474
z
" clip-path="url(#pdc9e37fd2a)" style="fill: #c3cae1; stroke: #f7f9fc; stroke-width: 0.7; stroke-linejoin: miter"/>
   </g>
   <g id="patch_63">
    <path d="M 388.223645 306.67176
L 432.82846 306.67176
L 432.82846 284.226474
L 388.223645 284.226474
z
" clip-path="url(#pdc9e37fd2a)" style="fill: #3e2b0b; stroke: #f7f9fc; stroke-width: 0.7; stroke-linejoin: miter"/>
   </g>
   <g id="text_1">
    <!-- accessible8_dark -->
    <g style="fill: #24364b" transform="translate(10.603334 33.67716) scale(0.1 -0.1)">
     <defs>
      <path id="DejaVuSans-61" d="M 2194 1759
Q 1497 1759 1228 1600
Q 959 1441 959 1056
Q 959 750 1161 570
Q 1363 391 1709 391
Q 2188 391 2477 730
Q 2766 1069 2766 1631
L 2766 1759
L 2194 1759
z
M 3341 1997
L 3341 0
L 2766 0
L 2766 531
Q 2569 213 2275 61
Q 1981 -91 1556 -91
Q 1019 -91 701 211
Q 384 513 384 1019
Q 384 1609 779 1909
Q 1175 2209 1959 2209
L 2766 2209
L 2766 2266
Q 2766 2663 2505 2880
Q 2244 3097 1772 3097
Q 1472 3097 1187 3025
Q 903 2953 641 2809
L 641 3341
Q 956 3463 1253 3523
Q 1550 3584 1831 3584
Q 2591 3584 2966 3190
Q 3341 2797 3341 1997
z
" transform="scale(0.015625)"/>
      <path id="DejaVuSans-63" d="M 3122 3366
L 3122 2828
Q 2878 2963 2633 3030
Q 2388 3097 2138 3097
Q 1578 3097 1268 2742
Q 959 2388 959 1747
Q 959 1106 1268 751
Q 1578 397 2138 397
Q 2388 397 2633 464
Q 2878 531 3122 666
L 3122 134
Q 2881 22 2623 -34
Q 2366 -91 2075 -91
Q 1284 -91 818 406
Q 353 903 353 1747
Q 353 2603 823 3093
Q 1294 3584 2113 3584
Q 2378 3584 2631 3529
Q 2884 3475 3122 3366
z
" transform="scale(0.015625)"/>
      <path id="DejaVuSans-65" d="M 3597 1894
L 3597 1613
L 953 1613
Q 991 1019 1311 708
Q 1631 397 2203 397
Q 2534 397 2845 478
Q 3156 559 3463 722
L 3463 178
Q 3153 47 2828 -22
Q 2503 -91 2169 -91
Q 1331 -91 842 396
Q 353 884 353 1716
Q 353 2575 817 3079
Q 1281 3584 2069 3584
Q 2775 3584 3186 3129
Q 3597 2675 3597 1894
z
M 3022 2063
Q 3016 2534 2758 2815
Q 2500 3097 2075 3097
Q 1594 3097 1305 2825
Q 1016 2553 972 2059
L 3022 2063
z
" transform="scale(0.015625)"/>
      <path id="DejaVuSans-73" d="M 2834 3397
L 2834 2853
Q 2591 2978 2328 3040
Q 2066 3103 1784 3103
Q 1356 3103 1142 2972
Q 928 2841 928 2578
Q 928 2378 1081 2264
Q 1234 2150 1697 2047
L 1894 2003
Q 2506 1872 2764 1633
Q 3022 1394 3022 966
Q 3022 478 2636 193
Q 2250 -91 1575 -91
Q 1294 -91 989 -36
Q 684 19 347 128
L 347 722
Q 666 556 975 473
Q 1284 391 1588 391
Q 1994 391 2212 530
Q 2431 669 2431 922
Q 2431 1156 2273 1281
Q 2116 1406 1581 1522
L 1381 1569
Q 847 1681 609 1914
Q 372 2147 372 2553
Q 372 3047 722 3315
Q 1072 3584 1716 3584
Q 2034 3584 2315 3537
Q 2597 3491 2834 3397
z
" transform="scale(0.015625)"/>
      <path id="DejaVuSans-69" d="M 603 3500
L 1178 3500
L 1178 0
L 603 0
L 603 3500
z
M 603 4863
L 1178 4863
L 1178 4134
L 603 4134
L 603 4863
z
" transform="scale(0.015625)"/>
      <path id="DejaVuSans-62" d="M 3116 1747
Q 3116 2381 2855 2742
Q 2594 3103 2138 3103
Q 1681 3103 1420 2742
Q 1159 2381 1159 1747
Q 1159 1113 1420 752
Q 1681 391 2138 391
Q 2594 391 2855 752
Q 3116 1113 3116 1747
z
M 1159 2969
Q 1341 3281 1617 3432
Q 1894 3584 2278 3584
Q 2916 3584 3314 3078
Q 3713 2572 3713 1747
Q 3713 922 3314 415
Q 2916 -91 2278 -91
Q 1894 -91 1617 61
Q 1341 213 1159 525
L 1159 0
L 581 0
L 581 4863
L 1159 4863
L 1159 2969
z
" transform="scale(0.015625)"/>
      <path id="DejaVuSans-6c" d="M 603 4863
L 1178 4863
L 1178 0
L 603 0
L 603 4863
z
" transform="scale(0.015625)"/>
      <path id="DejaVuSans-38" d="M 2034 2216
Q 1584 2216 1326 1975
Q 1069 1734 1069 1313
Q 1069 891 1326 650
Q 1584 409 2034 409
Q 2484 409 2743 651
Q 3003 894 3003 1313
Q 3003 1734 2745 1975
Q 2488 2216 2034 2216
z
M 1403 2484
Q 997 2584 770 2862
Q 544 3141 544 3541
Q 544 4100 942 4425
Q 1341 4750 2034 4750
Q 2731 4750 3128 4425
Q 3525 4100 3525 3541
Q 3525 3141 3298 2862
Q 3072 2584 2669 2484
Q 3125 2378 3379 2068
Q 3634 1759 3634 1313
Q 3634 634 3220 271
Q 2806 -91 2034 -91
Q 1263 -91 848 271
Q 434 634 434 1313
Q 434 1759 690 2068
Q 947 2378 1403 2484
z
M 1172 3481
Q 1172 3119 1398 2916
Q 1625 2713 2034 2713
Q 2441 2713 2670 2916
Q 2900 3119 2900 3481
Q 2900 3844 2670 4047
Q 2441 4250 2034 4250
Q 1625 4250 1398 4047
Q 1172 3844 1172 3481
z
" transform="scale(0.015625)"/>
      <path id="DejaVuSans-5f" d="M 3263 -1063
L 3263 -1509
L -63 -1509
L -63 -1063
L 3263 -1063
z
" transform="scale(0.015625)"/>
      <path id="DejaVuSans-64" d="M 2906 2969
L 2906 4863
L 3481 4863
L 3481 0
L 2906 0
L 2906 525
Q 2725 213 2448 61
Q 2172 -91 1784 -91
Q 1150 -91 751 415
Q 353 922 353 1747
Q 353 2572 751 3078
Q 1150 3584 1784 3584
Q 2172 3584 2448 3432
Q 2725 3281 2906 2969
z
M 947 1747
Q 947 1113 1208 752
Q 1469 391 1925 391
Q 2381 391 2643 752
Q 2906 1113 2906 1747
Q 2906 2381 2643 2742
Q 2381 3103 1925 3103
Q 1469 3103 1208 2742
Q 947 2381 947 1747
z
" transform="scale(0.015625)"/>
      <path id="DejaVuSans-72" d="M 2631 2963
Q 2534 3019 2420 3045
Q 2306 3072 2169 3072
Q 1681 3072 1420 2755
Q 1159 2438 1159 1844
L 1159 0
L 581 0
L 581 3500
L 1159 3500
L 1159 2956
Q 1341 3275 1631 3429
Q 1922 3584 2338 3584
Q 2397 3584 2469 3576
Q 2541 3569 2628 3553
L 2631 2963
z
" transform="scale(0.015625)"/>
      <path id="DejaVuSans-6b" d="M 581 4863
L 1159 4863
L 1159 1991
L 2875 3500
L 3609 3500
L 1753 1863
L 3688 0
L 2938 0
L 1159 1709
L 1159 0
L 581 0
L 581 4863
z
" transform="scale(0.015625)"/>
     </defs>
     <use xlink:href="#DejaVuSans-61"/>
     <use xlink:href="#DejaVuSans-63" transform="translate(61.279297 0)"/>
     <use xlink:href="#DejaVuSans-63" transform="translate(116.259766 0)"/>
     <use xlink:href="#DejaVuSans-65" transform="translate(171.240234 0)"/>
     <use xlink:href="#DejaVuSans-73" transform="translate(232.763672 0)"/>
     <use xlink:href="#DejaVuSans-73" transform="translate(284.863281 0)"/>
     <use xlink:href="#DejaVuSans-69" transform="translate(336.962891 0)"/>
     <use xlink:href="#DejaVuSans-62" transform="translate(364.746094 0)"/>
     <use xlink:href="#DejaVuSans-6c" transform="translate(428.222656 0)"/>
     <use xlink:href="#DejaVuSans-65" transform="translate(456.005859 0)"/>
     <use xlink:href="#DejaVuSans-38" transform="translate(517.529297 0)"/>
     <use xlink:href="#DejaVuSans-5f" transform="translate(581.152344 0)"/>
     <use xlink:href="#DejaVuSans-64" transform="translate(631.152344 0)"/>
     <use xlink:href="#DejaVuSans-61" transform="translate(694.628906 0)"/>
     <use xlink:href="#DejaVuSans-72" transform="translate(755.908203 0)"/>
     <use xlink:href="#DejaVuSans-6b" transform="translate(797.021484 0)"/>
    </g>
   </g>
   <g id="text_2">
    <!-- accessible8_light -->
    <g style="fill: #24364b" transform="translate(10.603334 66.684934) scale(0.1 -0.1)">
     <defs>
      <path id="DejaVuSans-67" d="M 2906 1791
Q 2906 2416 2648 2759
Q 2391 3103 1925 3103
Q 1463 3103 1205 2759
Q 947 2416 947 1791
Q 947 1169 1205 825
Q 1463 481 1925 481
Q 2391 481 2648 825
Q 2906 1169 2906 1791
z
M 3481 434
Q 3481 -459 3084 -895
Q 2688 -1331 1869 -1331
Q 1566 -1331 1297 -1286
Q 1028 -1241 775 -1147
L 775 -588
Q 1028 -725 1275 -790
Q 1522 -856 1778 -856
Q 2344 -856 2625 -561
Q 2906 -266 2906 331
L 2906 616
Q 2728 306 2450 153
Q 2172 0 1784 0
Q 1141 0 747 490
Q 353 981 353 1791
Q 353 2603 747 3093
Q 1141 3584 1784 3584
Q 2172 3584 2450 3431
Q 2728 3278 2906 2969
L 2906 3500
L 3481 3500
L 3481 434
z
" transform="scale(0.015625)"/>
      <path id="DejaVuSans-68" d="M 3513 2113
L 3513 0
L 2938 0
L 2938 2094
Q 2938 2591 2744 2837
Q 2550 3084 2163 3084
Q 1697 3084 1428 2787
Q 1159 2491 1159 1978
L 1159 0
L 581 0
L 581 4863
L 1159 4863
L 1159 2956
Q 1366 3272 1645 3428
Q 1925 3584 2291 3584
Q 2894 3584 3203 3211
Q 3513 2838 3513 2113
z
" transform="scale(0.015625)"/>
      <path id="DejaVuSans-74" d="M 1172 4494
L 1172 3500
L 2356 3500
L 2356 3053
L 1172 3053
L 1172 1153
Q 1172 725 1289 603
Q 1406 481 1766 481
L 2356 481
L 2356 0
L 1766 0
Q 1100 0 847 248
Q 594 497 594 1153
L 594 3053
L 172 3053
L 172 3500
L 594 3500
L 594 4494
L 1172 4494
z
" transform="scale(0.015625)"/>
     </defs>
     <use xlink:href="#DejaVuSans-61"/>
     <use xlink:href="#DejaVuSans-63" transform="translate(61.279297 0)"/>
     <use xlink:href="#DejaVuSans-63" transform="translate(116.259766 0)"/>
     <use xlink:href="#DejaVuSans-65" transform="translate(171.240234 0)"/>
     <use xlink:href="#DejaVuSans-73" transform="translate(232.763672 0)"/>
     <use xlink:href="#DejaVuSans-73" transform="translate(284.863281 0)"/>
     <use xlink:href="#DejaVuSans-69" transform="translate(336.962891 0)"/>
     <use xlink:href="#DejaVuSans-62" transform="translate(364.746094 0)"/>
     <use xlink:href="#DejaVuSans-6c" transform="translate(428.222656 0)"/>
     <use xlink:href="#DejaVuSans-65" transform="translate(456.005859 0)"/>
     <use xlink:href="#DejaVuSans-38" transform="translate(517.529297 0)"/>
     <use xlink:href="#DejaVuSans-5f" transform="translate(581.152344 0)"/>
     <use xlink:href="#DejaVuSans-6c" transform="translate(631.152344 0)"/>
     <use xlink:href="#DejaVuSans-69" transform="translate(658.935547 0)"/>
     <use xlink:href="#DejaVuSans-67" transform="translate(686.71875 0)"/>
     <use xlink:href="#DejaVuSans-68" transform="translate(750.195312 0)"/>
     <use xlink:href="#DejaVuSans-74" transform="translate(813.574219 0)"/>
    </g>
   </g>
   <g id="text_3">
    <!-- bluey -->
    <g style="fill: #24364b" transform="translate(10.603334 99.831771) scale(0.1 -0.1)">
     <defs>
      <path id="DejaVuSans-75" d="M 544 1381
L 544 3500
L 1119 3500
L 1119 1403
Q 1119 906 1312 657
Q 1506 409 1894 409
Q 2359 409 2629 706
Q 2900 1003 2900 1516
L 2900 3500
L 3475 3500
L 3475 0
L 2900 0
L 2900 538
Q 2691 219 2414 64
Q 2138 -91 1772 -91
Q 1169 -91 856 284
Q 544 659 544 1381
z
M 1991 3584
L 1991 3584
z
" transform="scale(0.015625)"/>
      <path id="DejaVuSans-79" d="M 2059 -325
Q 1816 -950 1584 -1140
Q 1353 -1331 966 -1331
L 506 -1331
L 506 -850
L 844 -850
Q 1081 -850 1212 -737
Q 1344 -625 1503 -206
L 1606 56
L 191 3500
L 800 3500
L 1894 763
L 2988 3500
L 3597 3500
L 2059 -325
z
" transform="scale(0.015625)"/>
     </defs>
     <use xlink:href="#DejaVuSans-62"/>
     <use xlink:href="#DejaVuSans-6c" transform="translate(63.476562 0)"/>
     <use xlink:href="#DejaVuSans-75" transform="translate(91.259766 0)"/>
     <use xlink:href="#DejaVuSans-65" transform="translate(154.638672 0)"/>
     <use xlink:href="#DejaVuSans-79" transform="translate(216.162109 0)"/>
    </g>
   </g>
   <g id="text_4">
    <!-- bluey10 -->
    <g style="fill: #24364b" transform="translate(10.603334 132.839545) scale(0.1 -0.1)">
     <defs>
      <path id="DejaVuSans-31" d="M 794 531
L 1825 531
L 1825 4091
L 703 3866
L 703 4441
L 1819 4666
L 2450 4666
L 2450 531
L 3481 531
L 3481 0
L 794 0
L 794 531
z
" transform="scale(0.015625)"/>
      <path id="DejaVuSans-30" d="M 2034 4250
Q 1547 4250 1301 3770
Q 1056 3291 1056 2328
Q 1056 1369 1301 889
Q 1547 409 2034 409
Q 2525 409 2770 889
Q 3016 1369 3016 2328
Q 3016 3291 2770 3770
Q 2525 4250 2034 4250
z
M 2034 4750
Q 2819 4750 3233 4129
Q 3647 3509 3647 2328
Q 3647 1150 3233 529
Q 2819 -91 2034 -91
Q 1250 -91 836 529
Q 422 1150 422 2328
Q 422 3509 836 4129
Q 1250 4750 2034 4750
z
" transform="scale(0.015625)"/>
     </defs>
     <use xlink:href="#DejaVuSans-62"/>
     <use xlink:href="#DejaVuSans-6c" transform="translate(63.476562 0)"/>
     <use xlink:href="#DejaVuSans-75" transform="translate(91.259766 0)"/>
     <use xlink:href="#DejaVuSans-65" transform="translate(154.638672 0)"/>
     <use xlink:href="#DejaVuSans-79" transform="translate(216.162109 0)"/>
     <use xlink:href="#DejaVuSans-31" transform="translate(275.341797 0)"/>
     <use xlink:href="#DejaVuSans-30" transform="translate(338.964844 0)"/>
    </g>
   </g>
   <g id="text_5">
    <!-- chilli -->
    <g style="fill: #24364b" transform="translate(10.603334 165.847318) scale(0.1 -0.1)">
     <use xlink:href="#DejaVuSans-63"/>
     <use xlink:href="#DejaVuSans-68" transform="translate(54.980469 0)"/>
     <use xlink:href="#DejaVuSans-69" transform="translate(118.359375 0)"/>
     <use xlink:href="#DejaVuSans-6c" transform="translate(146.142578 0)"/>
     <use xlink:href="#DejaVuSans-6c" transform="translate(173.925781 0)"/>
     <use xlink:href="#DejaVuSans-69" transform="translate(201.708984 0)"/>
    </g>
   </g>
   <g id="text_6">
    <!-- colorblind -->
    <g style="fill: #24364b" transform="translate(10.603334 198.855092) scale(0.1 -0.1)">
     <defs>
      <path id="DejaVuSans-6f" d="M 1959 3097
Q 1497 3097 1228 2736
Q 959 2375 959 1747
Q 959 1119 1226 758
Q 1494 397 1959 397
Q 2419 397 2687 759
Q 2956 1122 2956 1747
Q 2956 2369 2687 2733
Q 2419 3097 1959 3097
z
M 1959 3584
Q 2709 3584 3137 3096
Q 3566 2609 3566 1747
Q 3566 888 3137 398
Q 2709 -91 1959 -91
Q 1206 -91 779 398
Q 353 888 353 1747
Q 353 2609 779 3096
Q 1206 3584 1959 3584
z
" transform="scale(0.015625)"/>
      <path id="DejaVuSans-6e" d="M 3513 2113
L 3513 0
L 2938 0
L 2938 2094
Q 2938 2591 2744 2837
Q 2550 3084 2163 3084
Q 1697 3084 1428 2787
Q 1159 2491 1159 1978
L 1159 0
L 581 0
L 581 3500
L 1159 3500
L 1159 2956
Q 1366 3272 1645 3428
Q 1925 3584 2291 3584
Q 2894 3584 3203 3211
Q 3513 2838 3513 2113
z
" transform="scale(0.015625)"/>
     </defs>
     <use xlink:href="#DejaVuSans-63"/>
     <use xlink:href="#DejaVuSans-6f" transform="translate(54.980469 0)"/>
     <use xlink:href="#DejaVuSans-6c" transform="translate(116.162109 0)"/>
     <use xlink:href="#DejaVuSans-6f" transform="translate(143.945312 0)"/>
     <use xlink:href="#DejaVuSans-72" transform="translate(205.126953 0)"/>
     <use xlink:href="#DejaVuSans-62" transform="translate(246.240234 0)"/>
     <use xlink:href="#DejaVuSans-6c" transform="translate(309.716797 0)"/>
     <use xlink:href="#DejaVuSans-69" transform="translate(337.5 0)"/>
     <use xlink:href="#DejaVuSans-6e" transform="translate(365.283203 0)"/>
     <use xlink:href="#DejaVuSans-64" transform="translate(428.662109 0)"/>
    </g>
   </g>
   <g id="text_7">
    <!-- colorblind_dark -->
    <g style="fill: #24364b" transform="translate(10.603334 231.723804) scale(0.1 -0.1)">
     <use xlink:href="#DejaVuSans-63"/>
     <use xlink:href="#DejaVuSans-6f" transform="translate(54.980469 0)"/>
     <use xlink:href="#DejaVuSans-6c" transform="translate(116.162109 0)"/>
     <use xlink:href="#DejaVuSans-6f" transform="translate(143.945312 0)"/>
     <use xlink:href="#DejaVuSans-72" transform="translate(205.126953 0)"/>
     <use xlink:href="#DejaVuSans-62" transform="translate(246.240234 0)"/>
     <use xlink:href="#DejaVuSans-6c" transform="translate(309.716797 0)"/>
     <use xlink:href="#DejaVuSans-69" transform="translate(337.5 0)"/>
     <use xlink:href="#DejaVuSans-6e" transform="translate(365.283203 0)"/>
     <use xlink:href="#DejaVuSans-64" transform="translate(428.662109 0)"/>
     <use xlink:href="#DejaVuSans-5f" transform="translate(492.138672 0)"/>
     <use xlink:href="#DejaVuSans-64" transform="translate(542.138672 0)"/>
     <use xlink:href="#DejaVuSans-61" transform="translate(605.615234 0)"/>
     <use xlink:href="#DejaVuSans-72" transform="translate(666.894531 0)"/>
     <use xlink:href="#DejaVuSans-6b" transform="translate(708.007812 0)"/>
    </g>
   </g>
   <g id="text_8">
    <!-- heeler -->
    <g style="fill: #24364b" transform="translate(10.603334 264.87064) scale(0.1 -0.1)">
     <use xlink:href="#DejaVuSans-68"/>
     <use xlink:href="#DejaVuSans-65" transform="translate(63.378906 0)"/>
     <use xlink:href="#DejaVuSans-65" transform="translate(124.902344 0)"/>
     <use xlink:href="#DejaVuSans-6c" transform="translate(186.425781 0)"/>
     <use xlink:href="#DejaVuSans-65" transform="translate(214.208984 0)"/>
     <use xlink:href="#DejaVuSans-72" transform="translate(275.732422 0)"/>
    </g>
   </g>
   <g id="text_9">
    <!-- socks -->
    <g style="fill: #24364b" transform="translate(10.603334 297.878414) scale(0.1 -0.1)">
     <use xlink:href="#DejaVuSans-73"/>
     <use xlink:href="#DejaVuSans-6f" transform="translate(52.099609 0)"/>
     <use xlink:href="#DejaVuSans-63" transform="translate(113.28125 0)"/>
     <use xlink:href="#DejaVuSans-6b" transform="translate(168.261719 0)"/>
     <use xlink:href="#DejaVuSans-73" transform="translate(226.171875 0)"/>
    </g>
   </g>
  </g>
 </g>
 <defs>
  <clipPath id="pdc9e37fd2a">
   <rect x="3.00024" y="3.00024" width="719.75952" height="303.67152"/>
  </clipPath>
 </defs>
</svg>
