<svg class="main-svg" xmlns="http://www.w3.org/2000/svg" xmlns:xlink="http://www.w3.org/1999/xlink" width="900" height="600" style="" viewBox="0 0 900 600"><rect x="0" y="0" width="900" height="600" style="fill: rgb(247, 249, 252); fill-opacity: 1;"/><defs id="defs-cf7568"><g class="clips"><clipPath id="clipcf7568xyplot" class="plotclip"><rect width="737" height="420"/></clipPath><clipPath class="axesclip" id="clipcf7568x"><rect x="80" y="0" width="737" height="600"/></clipPath><clipPath class="axesclip" id="clipcf7568y"><rect x="0" y="100" width="900" height="420"/></clipPath><clipPath class="axesclip" id="clipcf7568xy"><rect x="80" y="100" width="737" height="420"/></clipPath></g><g class="gradients"/><g class="patterns"/></defs><g class="bglayer"><rect class="bg" x="80" y="100" width="737" height="420" style="fill: rgb(240, 244, 250); fill-opacity: 1; stroke-width: 0;"/></g><g class="layer-below"><g class="imagelayer"/><g class="shapelayer"/></g><g class="cartesianlayer"><g class="subplot xy"><g class="layer-subplot"><g class="shapelayer"/><g class="imagelayer"/></g><g class="minor-gridlayer"><g class="x"/><g class="y"/></g><g class="gridlayer"><g class="x"><path class="xgrid crisp" transform="translate(191.76999999999998,0)" d="M0,100v420" style="stroke: rgb(216, 225, 236); stroke-opacity: 1; stroke-width: 1px;"/><path class="xgrid crisp" transform="translate(329.5,0)" d="M0,100v420" style="stroke: rgb(216, 225, 236); stroke-opacity: 1; stroke-width: 1px;"/><path class="xgrid crisp" transform="translate(604.96,0)" d="M0,100v420" style="stroke: rgb(216, 225, 236); stroke-opacity: 1; stroke-width: 1px;"/><path class="xgrid crisp" transform="translate(742.69,0)" d="M0,100v420" style="stroke: rgb(216, 225, 236); stroke-opacity: 1; stroke-width: 1px;"/></g><g class="y"><path class="ygrid crisp" transform="translate(0,477.6)" d="M80,0h737" style="stroke: rgb(216, 225, 236); stroke-opacity: 1; stroke-width: 1px;"/><path class="ygrid crisp" transform="translate(0,407.38)" d="M80,0h737" style="stroke: rgb(216, 225, 236); stroke-opacity: 1; stroke-width: 1px;"/><path class="ygrid crisp" transform="translate(0,337.15999999999997)" d="M80,0h737" style="stroke: rgb(216, 225, 236); stroke-opacity: 1; stroke-width: 1px;"/><path class="ygrid crisp" transform="translate(0,196.73000000000002)" d="M80,0h737" style="stroke: rgb(216, 225, 236); stroke-opacity: 1; stroke-width: 1px;"/><path class="ygrid crisp" transform="translate(0,126.52)" d="M80,0h737" style="stroke: rgb(216, 225, 236); stroke-opacity: 1; stroke-width: 1px;"/></g></g><g class="zerolinelayer"><path class="xzl zl crisp" transform="translate(467.23,0)" d="M0,100v420" style="stroke: rgb(216, 225, 236); stroke-opacity: 1; stroke-width: 1px;"/><path class="yzl zl crisp" transform="translate(0,266.95)" d="M80,0h737" style="stroke: rgb(216, 225, 236); stroke-opacity: 1; stroke-width: 1px;"/></g><g class="layer-between"><g class="shapelayer"/><g class="imagelayer"/></g><path class="xlines-below"/><path class="ylines-below"/><g class="overlines-below"/><g class="xaxislayer-below"/><g class="yaxislayer-below"/><g class="overaxes-below"/><g class="overplot"><g class="xy" transform="translate(80,100)" clip-path="url(#clipcf7568xyplot)"><g class="scatterlayer mlayer"><g class="trace scatter trace591b83" style="stroke-miterlimit: 2; opacity: 1;"><g class="fills"/><g class="errorbars"/><g class="lines"/><g class="points"><path class="point" transform="translate(387.4,240.96)" d="M3,0A3,3 0 1,1 0,-3A3,3 0 0,1 3,0Z" style="opacity: 1; stroke-width: 0px; fill: rgb(48, 89, 138); fill-opacity: 1;"/><path class="point" transform="translate(349.47,68.14)" d="M3,0A3,3 0 1,1 0,-3A3,3 0 0,1 3,0Z" style="opacity: 1; stroke-width: 0px; fill: rgb(48, 89, 138); fill-opacity: 1;"/><path class="point" transform="translate(324.61,181.59)" d="M3,0A3,3 0 1,1 0,-3A3,3 0 0,1 3,0Z" style="opacity: 1; stroke-width: 0px; fill: rgb(48, 89, 138); fill-opacity: 1;"/><path class="point" transform="translate(482.99,252.34)" d="M3,0A3,3 0 1,1 0,-3A3,3 0 0,1 3,0Z" style="opacity: 1; stroke-width: 0px; fill: rgb(48, 89, 138); fill-opacity: 1;"/><path class="point" transform="translate(133.57,197.92)" d="M3,0A3,3 0 1,1 0,-3A3,3 0 0,1 3,0Z" style="opacity: 1; stroke-width: 0px; fill: rgb(48, 89, 138); fill-opacity: 1;"/><path class="point" transform="translate(380.55,140.08)" d="M3,0A3,3 0 1,1 0,-3A3,3 0 0,1 3,0Z" style="opacity: 1; stroke-width: 0px; fill: rgb(48, 89, 138); fill-opacity: 1;"/><path class="point" transform="translate(402.84,206.52)" d="M3,0A3,3 0 1,1 0,-3A3,3 0 0,1 3,0Z" style="opacity: 1; stroke-width: 0px; fill: rgb(48, 89, 138); fill-opacity: 1;"/><path class="point" transform="translate(275.83,176.83)" d="M3,0A3,3 0 1,1 0,-3A3,3 0 0,1 3,0Z" style="opacity: 1; stroke-width: 0px; fill: rgb(48, 89, 138); fill-opacity: 1;"/><path class="point" transform="translate(533.35,128.9)" d="M3,0A3,3 0 1,1 0,-3A3,3 0 0,1 3,0Z" style="opacity: 1; stroke-width: 0px; fill: rgb(48, 89, 138); fill-opacity: 1;"/><path class="point" transform="translate(276.01,112.08)" d="M3,0A3,3 0 1,1 0,-3A3,3 0 0,1 3,0Z" style="opacity: 1; stroke-width: 0px; fill: rgb(48, 89, 138); fill-opacity: 1;"/><path class="point" transform="translate(382.75,108.59)" d="M3,0A3,3 0 1,1 0,-3A3,3 0 0,1 3,0Z" style="opacity: 1; stroke-width: 0px; fill: rgb(48, 89, 138); fill-opacity: 1;"/><path class="point" transform="translate(371.85,60.57)" d="M3,0A3,3 0 1,1 0,-3A3,3 0 0,1 3,0Z" style="opacity: 1; stroke-width: 0px; fill: rgb(48, 89, 138); fill-opacity: 1;"/><path class="point" transform="translate(574.38,35.01)" d="M3,0A3,3 0 1,1 0,-3A3,3 0 0,1 3,0Z" style="opacity: 1; stroke-width: 0px; fill: rgb(48, 89, 138); fill-opacity: 1;"/><path class="point" transform="translate(505.59,247.36)" d="M3,0A3,3 0 1,1 0,-3A3,3 0 0,1 3,0Z" style="opacity: 1; stroke-width: 0px; fill: rgb(48, 89, 138); fill-opacity: 1;"/><path class="point" transform="translate(222.05,107.99)" d="M3,0A3,3 0 1,1 0,-3A3,3 0 0,1 3,0Z" style="opacity: 1; stroke-width: 0px; fill: rgb(48, 89, 138); fill-opacity: 1;"/><path class="point" transform="translate(378.07,184.21)" d="M3,0A3,3 0 1,1 0,-3A3,3 0 0,1 3,0Z" style="opacity: 1; stroke-width: 0px; fill: rgb(48, 89, 138); fill-opacity: 1;"/><path class="point" transform="translate(544.96,213.15)" d="M3,0A3,3 0 1,1 0,-3A3,3 0 0,1 3,0Z" style="opacity: 1; stroke-width: 0px; fill: rgb(48, 89, 138); fill-opacity: 1;"/><path class="point" transform="translate(373.83,143.09)" d="M3,0A3,3 0 1,1 0,-3A3,3 0 0,1 3,0Z" style="opacity: 1; stroke-width: 0px; fill: rgb(48, 89, 138); fill-opacity: 1;"/><path class="point" transform="translate(560.36,24.75)" d="M3,0A3,3 0 1,1 0,-3A3,3 0 0,1 3,0Z" style="opacity: 1; stroke-width: 0px; fill: rgb(48, 89, 138); fill-opacity: 1;"/><path class="point" transform="translate(336.47,173.23)" d="M3,0A3,3 0 1,1 0,-3A3,3 0 0,1 3,0Z" style="opacity: 1; stroke-width: 0px; fill: rgb(48, 89, 138); fill-opacity: 1;"/><path class="point" transform="translate(435.79,172.74)" d="M3,0A3,3 0 1,1 0,-3A3,3 0 0,1 3,0Z" style="opacity: 1; stroke-width: 0px; fill: rgb(48, 89, 138); fill-opacity: 1;"/><path class="point" transform="translate(233.79,85.88)" d="M3,0A3,3 0 1,1 0,-3A3,3 0 0,1 3,0Z" style="opacity: 1; stroke-width: 0px; fill: rgb(48, 89, 138); fill-opacity: 1;"/><path class="point" transform="translate(383.91,395.25)" d="M3,0A3,3 0 1,1 0,-3A3,3 0 0,1 3,0Z" style="opacity: 1; stroke-width: 0px; fill: rgb(48, 89, 138); fill-opacity: 1;"/><path class="point" transform="translate(340.42,73.31)" d="M3,0A3,3 0 1,1 0,-3A3,3 0 0,1 3,0Z" style="opacity: 1; stroke-width: 0px; fill: rgb(48, 89, 138); fill-opacity: 1;"/><path class="point" transform="translate(386.49,249.28)" d="M3,0A3,3 0 1,1 0,-3A3,3 0 0,1 3,0Z" style="opacity: 1; stroke-width: 0px; fill: rgb(48, 89, 138); fill-opacity: 1;"/><path class="point" transform="translate(362.94,256.2)" d="M3,0A3,3 0 1,1 0,-3A3,3 0 0,1 3,0Z" style="opacity: 1; stroke-width: 0px; fill: rgb(48, 89, 138); fill-opacity: 1;"/><path class="point" transform="translate(358.87,176.61)" d="M3,0A3,3 0 1,1 0,-3A3,3 0 0,1 3,0Z" style="opacity: 1; stroke-width: 0px; fill: rgb(48, 89, 138); fill-opacity: 1;"/><path class="point" transform="translate(242,112.76)" d="M3,0A3,3 0 1,1 0,-3A3,3 0 0,1 3,0Z" style="opacity: 1; stroke-width: 0px; fill: rgb(48, 89, 138); fill-opacity: 1;"/><path class="point" transform="translate(423.02,140.36)" d="M3,0A3,3 0 1,1 0,-3A3,3 0 0,1 3,0Z" style="opacity: 1; stroke-width: 0px; fill: rgb(48, 89, 138); fill-opacity: 1;"/><path class="point" transform="translate(112.08,179.46)" d="M3,0A3,3 0 1,1 0,-3A3,3 0 0,1 3,0Z" style="opacity: 1; stroke-width: 0px; fill: rgb(48, 89, 138); fill-opacity: 1;"/><path class="point" transform="translate(559.28,119.98)" d="M3,0A3,3 0 1,1 0,-3A3,3 0 0,1 3,0Z" style="opacity: 1; stroke-width: 0px; fill: rgb(48, 89, 138); fill-opacity: 1;"/><path class="point" transform="translate(538.54,60.79)" d="M3,0A3,3 0 1,1 0,-3A3,3 0 0,1 3,0Z" style="opacity: 1; stroke-width: 0px; fill: rgb(48, 89, 138); fill-opacity: 1;"/><path class="point" transform="translate(312.46,127.93)" d="M3,0A3,3 0 1,1 0,-3A3,3 0 0,1 3,0Z" style="opacity: 1; stroke-width: 0px; fill: rgb(48, 89, 138); fill-opacity: 1;"/><path class="point" transform="translate(380.18,171.05)" d="M3,0A3,3 0 1,1 0,-3A3,3 0 0,1 3,0Z" style="opacity: 1; stroke-width: 0px; fill: rgb(48, 89, 138); fill-opacity: 1;"/><path class="point" transform="translate(520.27,191.26)" d="M3,0A3,3 0 1,1 0,-3A3,3 0 0,1 3,0Z" style="opacity: 1; stroke-width: 0px; fill: rgb(48, 89, 138); fill-opacity: 1;"/><path class="point" transform="translate(388.33,182.9)" d="M3,0A3,3 0 1,1 0,-3A3,3 0 0,1 3,0Z" style="opacity: 1; stroke-width: 0px; fill: rgb(48, 89, 138); fill-opacity: 1;"/><path class="point" transform="translate(615.04,226.94)" d="M3,0A3,3 0 1,1 0,-3A3,3 0 0,1 3,0Z" style="opacity: 1; stroke-width: 0px; fill: rgb(48, 89, 138); fill-opacity: 1;"/></g><g class="text"/></g><g class="trace scatter trace97512f" style="stroke-miterlimit: 2; opacity: 1;"><g class="fills"/><g class="errorbars"/><g class="lines"/><g class="points"><path class="point" transform="translate(428.38,143.26)" d="M3,0A3,3 0 1,1 0,-3A3,3 0 0,1 3,0Z" style="opacity: 1; stroke-width: 0px; fill: rgb(114, 191, 237); fill-opacity: 1;"/><path class="point" transform="translate(571.82,115.34)" d="M3,0A3,3 0 1,1 0,-3A3,3 0 0,1 3,0Z" style="opacity: 1; stroke-width: 0px; fill: rgb(114, 191, 237); fill-opacity: 1;"/><path class="point" transform="translate(383.2,244.77)" d="M3,0A3,3 0 1,1 0,-3A3,3 0 0,1 3,0Z" style="opacity: 1; stroke-width: 0px; fill: rgb(114, 191, 237); fill-opacity: 1;"/><path class="point" transform="translate(202.09,73.17)" d="M3,0A3,3 0 1,1 0,-3A3,3 0 0,1 3,0Z" style="opacity: 1; stroke-width: 0px; fill: rgb(114, 191, 237); fill-opacity: 1;"/><path class="point" transform="translate(324.2,202.55)" d="M3,0A3,3 0 1,1 0,-3A3,3 0 0,1 3,0Z" style="opacity: 1; stroke-width: 0px; fill: rgb(114, 191, 237); fill-opacity: 1;"/><path class="point" transform="translate(125.38,146.47)" d="M3,0A3,3 0 1,1 0,-3A3,3 0 0,1 3,0Z" style="opacity: 1; stroke-width: 0px; fill: rgb(114, 191, 237); fill-opacity: 1;"/><path class="point" transform="translate(354.85,202.61)" d="M3,0A3,3 0 1,1 0,-3A3,3 0 0,1 3,0Z" style="opacity: 1; stroke-width: 0px; fill: rgb(114, 191, 237); fill-opacity: 1;"/><path class="point" transform="translate(212.67,122.71)" d="M3,0A3,3 0 1,1 0,-3A3,3 0 0,1 3,0Z" style="opacity: 1; stroke-width: 0px; fill: rgb(114, 191, 237); fill-opacity: 1;"/><path class="point" transform="translate(408.82,177.58)" d="M3,0A3,3 0 1,1 0,-3A3,3 0 0,1 3,0Z" style="opacity: 1; stroke-width: 0px; fill: rgb(114, 191, 237); fill-opacity: 1;"/><path class="point" transform="translate(361.49,165.39)" d="M3,0A3,3 0 1,1 0,-3A3,3 0 0,1 3,0Z" style="opacity: 1; stroke-width: 0px; fill: rgb(114, 191, 237); fill-opacity: 1;"/><path class="point" transform="translate(218.51,132.27)" d="M3,0A3,3 0 1,1 0,-3A3,3 0 0,1 3,0Z" style="opacity: 1; stroke-width: 0px; fill: rgb(114, 191, 237); fill-opacity: 1;"/><path class="point" transform="translate(397.72,105.61)" d="M3,0A3,3 0 1,1 0,-3A3,3 0 0,1 3,0Z" style="opacity: 1; stroke-width: 0px; fill: rgb(114, 191, 237); fill-opacity: 1;"/><path class="point" transform="translate(174.14,62.72)" d="M3,0A3,3 0 1,1 0,-3A3,3 0 0,1 3,0Z" style="opacity: 1; stroke-width: 0px; fill: rgb(114, 191, 237); fill-opacity: 1;"/><path class="point" transform="translate(403.67,285.52)" d="M3,0A3,3 0 1,1 0,-3A3,3 0 0,1 3,0Z" style="opacity: 1; stroke-width: 0px; fill: rgb(114, 191, 237); fill-opacity: 1;"/><path class="point" transform="translate(585.36,227.37)" d="M3,0A3,3 0 1,1 0,-3A3,3 0 0,1 3,0Z" style="opacity: 1; stroke-width: 0px; fill: rgb(114, 191, 237); fill-opacity: 1;"/><path class="point" transform="translate(415.21,178.65)" d="M3,0A3,3 0 1,1 0,-3A3,3 0 0,1 3,0Z" style="opacity: 1; stroke-width: 0px; fill: rgb(114, 191, 237); fill-opacity: 1;"/><path class="point" transform="translate(360.21,138.4)" d="M3,0A3,3 0 1,1 0,-3A3,3 0 0,1 3,0Z" style="opacity: 1; stroke-width: 0px; fill: rgb(114, 191, 237); fill-opacity: 1;"/><path class="point" transform="translate(204.94,237.1)" d="M3,0A3,3 0 1,1 0,-3A3,3 0 0,1 3,0Z" style="opacity: 1; stroke-width: 0px; fill: rgb(114, 191, 237); fill-opacity: 1;"/><path class="point" transform="translate(323.44,141.95)" d="M3,0A3,3 0 1,1 0,-3A3,3 0 0,1 3,0Z" style="opacity: 1; stroke-width: 0px; fill: rgb(114, 191, 237); fill-opacity: 1;"/><path class="point" transform="translate(342.16,104.6)" d="M3,0A3,3 0 1,1 0,-3A3,3 0 0,1 3,0Z" style="opacity: 1; stroke-width: 0px; fill: rgb(114, 191, 237); fill-opacity: 1;"/><path class="point" transform="translate(352.77,167.93)" d="M3,0A3,3 0 1,1 0,-3A3,3 0 0,1 3,0Z" style="opacity: 1; stroke-width: 0px; fill: rgb(114, 191, 237); fill-opacity: 1;"/><path class="point" transform="translate(360.06,187.36)" d="M3,0A3,3 0 1,1 0,-3A3,3 0 0,1 3,0Z" style="opacity: 1; stroke-width: 0px; fill: rgb(114, 191, 237); fill-opacity: 1;"/><path class="point" transform="translate(385.64,168.46)" d="M3,0A3,3 0 1,1 0,-3A3,3 0 0,1 3,0Z" style="opacity: 1; stroke-width: 0px; fill: rgb(114, 191, 237); fill-opacity: 1;"/><path class="point" transform="translate(326.14,321.45)" d="M3,0A3,3 0 1,1 0,-3A3,3 0 0,1 3,0Z" style="opacity: 1; stroke-width: 0px; fill: rgb(114, 191, 237); fill-opacity: 1;"/><path class="point" transform="translate(477.18,305.19)" d="M3,0A3,3 0 1,1 0,-3A3,3 0 0,1 3,0Z" style="opacity: 1; stroke-width: 0px; fill: rgb(114, 191, 237); fill-opacity: 1;"/><path class="point" transform="translate(434.98,155.88)" d="M3,0A3,3 0 1,1 0,-3A3,3 0 0,1 3,0Z" style="opacity: 1; stroke-width: 0px; fill: rgb(114, 191, 237); fill-opacity: 1;"/><path class="point" transform="translate(154.72,163.58)" d="M3,0A3,3 0 1,1 0,-3A3,3 0 0,1 3,0Z" style="opacity: 1; stroke-width: 0px; fill: rgb(114, 191, 237); fill-opacity: 1;"/><path class="point" transform="translate(106.91,170.7)" d="M3,0A3,3 0 1,1 0,-3A3,3 0 0,1 3,0Z" style="opacity: 1; stroke-width: 0px; fill: rgb(114, 191, 237); fill-opacity: 1;"/><path class="point" transform="translate(696.4,151.8)" d="M3,0A3,3 0 1,1 0,-3A3,3 0 0,1 3,0Z" style="opacity: 1; stroke-width: 0px; fill: rgb(114, 191, 237); fill-opacity: 1;"/><path class="point" transform="translate(272.68,240.17)" d="M3,0A3,3 0 1,1 0,-3A3,3 0 0,1 3,0Z" style="opacity: 1; stroke-width: 0px; fill: rgb(114, 191, 237); fill-opacity: 1;"/><path class="point" transform="translate(458.84,259.96)" d="M3,0A3,3 0 1,1 0,-3A3,3 0 0,1 3,0Z" style="opacity: 1; stroke-width: 0px; fill: rgb(114, 191, 237); fill-opacity: 1;"/><path class="point" transform="translate(244.86,46.04)" d="M3,0A3,3 0 1,1 0,-3A3,3 0 0,1 3,0Z" style="opacity: 1; stroke-width: 0px; fill: rgb(114, 191, 237); fill-opacity: 1;"/><path class="point" transform="translate(392.09,199.5)" d="M3,0A3,3 0 1,1 0,-3A3,3 0 0,1 3,0Z" style="opacity: 1; stroke-width: 0px; fill: rgb(114, 191, 237); fill-opacity: 1;"/><path class="point" transform="translate(521.11,149.37)" d="M3,0A3,3 0 1,1 0,-3A3,3 0 0,1 3,0Z" style="opacity: 1; stroke-width: 0px; fill: rgb(114, 191, 237); fill-opacity: 1;"/><path class="point" transform="translate(370.9,185.86)" d="M3,0A3,3 0 1,1 0,-3A3,3 0 0,1 3,0Z" style="opacity: 1; stroke-width: 0px; fill: rgb(114, 191, 237); fill-opacity: 1;"/><path class="point" transform="translate(231.4,83.53)" d="M3,0A3,3 0 1,1 0,-3A3,3 0 0,1 3,0Z" style="opacity: 1; stroke-width: 0px; fill: rgb(114, 191, 237); fill-opacity: 1;"/><path class="point" transform="translate(437.21,143.47)" d="M3,0A3,3 0 1,1 0,-3A3,3 0 0,1 3,0Z" style="opacity: 1; stroke-width: 0px; fill: rgb(114, 191, 237); fill-opacity: 1;"/><path class="point" transform="translate(503.83,59.59)" d="M3,0A3,3 0 1,1 0,-3A3,3 0 0,1 3,0Z" style="opacity: 1; stroke-width: 0px; fill: rgb(114, 191, 237); fill-opacity: 1;"/><path class="point" transform="translate(146.74,205.94)" d="M3,0A3,3 0 1,1 0,-3A3,3 0 0,1 3,0Z" style="opacity: 1; stroke-width: 0px; fill: rgb(114, 191, 237); fill-opacity: 1;"/><path class="point" transform="translate(491.46,194.29)" d="M3,0A3,3 0 1,1 0,-3A3,3 0 0,1 3,0Z" style="opacity: 1; stroke-width: 0px; fill: rgb(114, 191, 237); fill-opacity: 1;"/><path class="point" transform="translate(270.78,294.51)" d="M3,0A3,3 0 1,1 0,-3A3,3 0 0,1 3,0Z" style="opacity: 1; stroke-width: 0px; fill: rgb(114, 191, 237); fill-opacity: 1;"/><path class="point" transform="translate(494.52,56.77)" d="M3,0A3,3 0 1,1 0,-3A3,3 0 0,1 3,0Z" style="opacity: 1; stroke-width: 0px; fill: rgb(114, 191, 237); fill-opacity: 1;"/><path class="point" transform="translate(405.27,99.24)" d="M3,0A3,3 0 1,1 0,-3A3,3 0 0,1 3,0Z" style="opacity: 1; stroke-width: 0px; fill: rgb(114, 191, 237); fill-opacity: 1;"/><path class="point" transform="translate(585.8,159.21)" d="M3,0A3,3 0 1,1 0,-3A3,3 0 0,1 3,0Z" style="opacity: 1; stroke-width: 0px; fill: rgb(114, 191, 237); fill-opacity: 1;"/><path class="point" transform="translate(365.21,181.24)" d="M3,0A3,3 0 1,1 0,-3A3,3 0 0,1 3,0Z" style="opacity: 1; stroke-width: 0px; fill: rgb(114, 191, 237); fill-opacity: 1;"/><path class="point" transform="translate(211.25,54.41)" d="M3,0A3,3 0 1,1 0,-3A3,3 0 0,1 3,0Z" style="opacity: 1; stroke-width: 0px; fill: rgb(114, 191, 237); fill-opacity: 1;"/><path class="point" transform="translate(560.37,131.37)" d="M3,0A3,3 0 1,1 0,-3A3,3 0 0,1 3,0Z" style="opacity: 1; stroke-width: 0px; fill: rgb(114, 191, 237); fill-opacity: 1;"/><path class="point" transform="translate(389.07,244.82)" d="M3,0A3,3 0 1,1 0,-3A3,3 0 0,1 3,0Z" style="opacity: 1; stroke-width: 0px; fill: rgb(114, 191, 237); fill-opacity: 1;"/><path class="point" transform="translate(291.59,171.64)" d="M3,0A3,3 0 1,1 0,-3A3,3 0 0,1 3,0Z" style="opacity: 1; stroke-width: 0px; fill: rgb(114, 191, 237); fill-opacity: 1;"/><path class="point" transform="translate(310.07,194.51)" d="M3,0A3,3 0 1,1 0,-3A3,3 0 0,1 3,0Z" style="opacity: 1; stroke-width: 0px; fill: rgb(114, 191, 237); fill-opacity: 1;"/><path class="point" transform="translate(335.55,182.47)" d="M3,0A3,3 0 1,1 0,-3A3,3 0 0,1 3,0Z" style="opacity: 1; stroke-width: 0px; fill: rgb(114, 191, 237); fill-opacity: 1;"/><path class="point" transform="translate(345.92,159.25)" d="M3,0A3,3 0 1,1 0,-3A3,3 0 0,1 3,0Z" style="opacity: 1; stroke-width: 0px; fill: rgb(114, 191, 237); fill-opacity: 1;"/></g><g class="text"/></g><g class="trace scatter trace23db55" style="stroke-miterlimit: 2; opacity: 1;"><g class="fills"/><g class="errorbars"/><g class="lines"/><g class="points"><path class="point" transform="translate(264.57,269.04)" d="M3,0A3,3 0 1,1 0,-3A3,3 0 0,1 3,0Z" style="opacity: 1; stroke-width: 0px; fill: rgb(226, 122, 55); fill-opacity: 1;"/><path class="point" transform="translate(250.65,211.33)" d="M3,0A3,3 0 1,1 0,-3A3,3 0 0,1 3,0Z" style="opacity: 1; stroke-width: 0px; fill: rgb(226, 122, 55); fill-opacity: 1;"/><path class="point" transform="translate(319.44,168.59)" d="M3,0A3,3 0 1,1 0,-3A3,3 0 0,1 3,0Z" style="opacity: 1; stroke-width: 0px; fill: rgb(226, 122, 55); fill-opacity: 1;"/><path class="point" transform="translate(301.77,161.93)" d="M3,0A3,3 0 1,1 0,-3A3,3 0 0,1 3,0Z" style="opacity: 1; stroke-width: 0px; fill: rgb(226, 122, 55); fill-opacity: 1;"/><path class="point" transform="translate(454.7,219.77)" d="M3,0A3,3 0 1,1 0,-3A3,3 0 0,1 3,0Z" style="opacity: 1; stroke-width: 0px; fill: rgb(226, 122, 55); fill-opacity: 1;"/><path class="point" transform="translate(436.39,135.02)" d="M3,0A3,3 0 1,1 0,-3A3,3 0 0,1 3,0Z" style="opacity: 1; stroke-width: 0px; fill: rgb(226, 122, 55); fill-opacity: 1;"/><path class="point" transform="translate(209.62,169.32)" d="M3,0A3,3 0 1,1 0,-3A3,3 0 0,1 3,0Z" style="opacity: 1; stroke-width: 0px; fill: rgb(226, 122, 55); fill-opacity: 1;"/><path class="point" transform="translate(424.59,188.14)" d="M3,0A3,3 0 1,1 0,-3A3,3 0 0,1 3,0Z" style="opacity: 1; stroke-width: 0px; fill: rgb(226, 122, 55); fill-opacity: 1;"/><path class="point" transform="translate(40.6,84.34)" d="M3,0A3,3 0 1,1 0,-3A3,3 0 0,1 3,0Z" style="opacity: 1; stroke-width: 0px; fill: rgb(226, 122, 55); fill-opacity: 1;"/><path class="point" transform="translate(313.04,119.17)" d="M3,0A3,3 0 1,1 0,-3A3,3 0 0,1 3,0Z" style="opacity: 1; stroke-width: 0px; fill: rgb(226, 122, 55); fill-opacity: 1;"/><path class="point" transform="translate(176.49,263.98)" d="M3,0A3,3 0 1,1 0,-3A3,3 0 0,1 3,0Z" style="opacity: 1; stroke-width: 0px; fill: rgb(226, 122, 55); fill-opacity: 1;"/><path class="point" transform="translate(321.43,100.28)" d="M3,0A3,3 0 1,1 0,-3A3,3 0 0,1 3,0Z" style="opacity: 1; stroke-width: 0px; fill: rgb(226, 122, 55); fill-opacity: 1;"/><path class="point" transform="translate(252.46,99.09)" d="M3,0A3,3 0 1,1 0,-3A3,3 0 0,1 3,0Z" style="opacity: 1; stroke-width: 0px; fill: rgb(226, 122, 55); fill-opacity: 1;"/><path class="point" transform="translate(306.85,198.94)" d="M3,0A3,3 0 1,1 0,-3A3,3 0 0,1 3,0Z" style="opacity: 1; stroke-width: 0px; fill: rgb(226, 122, 55); fill-opacity: 1;"/><path class="point" transform="translate(396.02,106.44)" d="M3,0A3,3 0 1,1 0,-3A3,3 0 0,1 3,0Z" style="opacity: 1; stroke-width: 0px; fill: rgb(226, 122, 55); fill-opacity: 1;"/><path class="point" transform="translate(662.75,238.22)" d="M3,0A3,3 0 1,1 0,-3A3,3 0 0,1 3,0Z" style="opacity: 1; stroke-width: 0px; fill: rgb(226, 122, 55); fill-opacity: 1;"/><path class="point" transform="translate(492.22,167.82)" d="M3,0A3,3 0 1,1 0,-3A3,3 0 0,1 3,0Z" style="opacity: 1; stroke-width: 0px; fill: rgb(226, 122, 55); fill-opacity: 1;"/><path class="point" transform="translate(466.66,315.1)" d="M3,0A3,3 0 1,1 0,-3A3,3 0 0,1 3,0Z" style="opacity: 1; stroke-width: 0px; fill: rgb(226, 122, 55); fill-opacity: 1;"/><path class="point" transform="translate(481.29,163.83)" d="M3,0A3,3 0 1,1 0,-3A3,3 0 0,1 3,0Z" style="opacity: 1; stroke-width: 0px; fill: rgb(226, 122, 55); fill-opacity: 1;"/><path class="point" transform="translate(479.13,164.24)" d="M3,0A3,3 0 1,1 0,-3A3,3 0 0,1 3,0Z" style="opacity: 1; stroke-width: 0px; fill: rgb(226, 122, 55); fill-opacity: 1;"/><path class="point" transform="translate(323.42,235.18)" d="M3,0A3,3 0 1,1 0,-3A3,3 0 0,1 3,0Z" style="opacity: 1; stroke-width: 0px; fill: rgb(226, 122, 55); fill-opacity: 1;"/><path class="point" transform="translate(404.76,282.35)" d="M3,0A3,3 0 1,1 0,-3A3,3 0 0,1 3,0Z" style="opacity: 1; stroke-width: 0px; fill: rgb(226, 122, 55); fill-opacity: 1;"/><path class="point" transform="translate(223.72,131.44)" d="M3,0A3,3 0 1,1 0,-3A3,3 0 0,1 3,0Z" style="opacity: 1; stroke-width: 0px; fill: rgb(226, 122, 55); fill-opacity: 1;"/><path class="point" transform="translate(277.79,229.2)" d="M3,0A3,3 0 1,1 0,-3A3,3 0 0,1 3,0Z" style="opacity: 1; stroke-width: 0px; fill: rgb(226, 122, 55); fill-opacity: 1;"/><path class="point" transform="translate(476.33,153.23)" d="M3,0A3,3 0 1,1 0,-3A3,3 0 0,1 3,0Z" style="opacity: 1; stroke-width: 0px; fill: rgb(226, 122, 55); fill-opacity: 1;"/><path class="point" transform="translate(547.84,215.54)" d="M3,0A3,3 0 1,1 0,-3A3,3 0 0,1 3,0Z" style="opacity: 1; stroke-width: 0px; fill: rgb(226, 122, 55); fill-opacity: 1;"/><path class="point" transform="translate(479.29,204.17)" d="M3,0A3,3 0 1,1 0,-3A3,3 0 0,1 3,0Z" style="opacity: 1; stroke-width: 0px; fill: rgb(226, 122, 55); fill-opacity: 1;"/><path class="point" transform="translate(532.14,163.64)" d="M3,0A3,3 0 1,1 0,-3A3,3 0 0,1 3,0Z" style="opacity: 1; stroke-width: 0px; fill: rgb(226, 122, 55); fill-opacity: 1;"/><path class="point" transform="translate(467.58,233)" d="M3,0A3,3 0 1,1 0,-3A3,3 0 0,1 3,0Z" style="opacity: 1; stroke-width: 0px; fill: rgb(226, 122, 55); fill-opacity: 1;"/><path class="point" transform="translate(345.3,164.25)" d="M3,0A3,3 0 1,1 0,-3A3,3 0 0,1 3,0Z" style="opacity: 1; stroke-width: 0px; fill: rgb(226, 122, 55); fill-opacity: 1;"/><path class="point" transform="translate(263.29,110.4)" d="M3,0A3,3 0 1,1 0,-3A3,3 0 0,1 3,0Z" style="opacity: 1; stroke-width: 0px; fill: rgb(226, 122, 55); fill-opacity: 1;"/><path class="point" transform="translate(301.3,131.06)" d="M3,0A3,3 0 1,1 0,-3A3,3 0 0,1 3,0Z" style="opacity: 1; stroke-width: 0px; fill: rgb(226, 122, 55); fill-opacity: 1;"/><path class="point" transform="translate(376.33,64.4)" d="M3,0A3,3 0 1,1 0,-3A3,3 0 0,1 3,0Z" style="opacity: 1; stroke-width: 0px; fill: rgb(226, 122, 55); fill-opacity: 1;"/><path class="point" transform="translate(413.78,171.26)" d="M3,0A3,3 0 1,1 0,-3A3,3 0 0,1 3,0Z" style="opacity: 1; stroke-width: 0px; fill: rgb(226, 122, 55); fill-opacity: 1;"/><path class="point" transform="translate(305.83,242.56)" d="M3,0A3,3 0 1,1 0,-3A3,3 0 0,1 3,0Z" style="opacity: 1; stroke-width: 0px; fill: rgb(226, 122, 55); fill-opacity: 1;"/><path class="point" transform="translate(94.07,167.34)" d="M3,0A3,3 0 1,1 0,-3A3,3 0 0,1 3,0Z" style="opacity: 1; stroke-width: 0px; fill: rgb(226, 122, 55); fill-opacity: 1;"/><path class="point" transform="translate(277.97,207.63)" d="M3,0A3,3 0 1,1 0,-3A3,3 0 0,1 3,0Z" style="opacity: 1; stroke-width: 0px; fill: rgb(226, 122, 55); fill-opacity: 1;"/><path class="point" transform="translate(301,211.53)" d="M3,0A3,3 0 1,1 0,-3A3,3 0 0,1 3,0Z" style="opacity: 1; stroke-width: 0px; fill: rgb(226, 122, 55); fill-opacity: 1;"/><path class="point" transform="translate(366.01,162.2)" d="M3,0A3,3 0 1,1 0,-3A3,3 0 0,1 3,0Z" style="opacity: 1; stroke-width: 0px; fill: rgb(226, 122, 55); fill-opacity: 1;"/><path class="point" transform="translate(276.11,183.48)" d="M3,0A3,3 0 1,1 0,-3A3,3 0 0,1 3,0Z" style="opacity: 1; stroke-width: 0px; fill: rgb(226, 122, 55); fill-opacity: 1;"/></g><g class="text"/></g><g class="trace scatter trace9d775f" style="stroke-miterlimit: 2; opacity: 1;"><g class="fills"/><g class="errorbars"/><g class="lines"/><g class="points"><path class="point" transform="translate(395.51,290.6)" d="M3,0A3,3 0 1,1 0,-3A3,3 0 0,1 3,0Z" style="opacity: 1; stroke-width: 0px; fill: rgb(64, 64, 102); fill-opacity: 1;"/><path class="point" transform="translate(401.75,204.82)" d="M3,0A3,3 0 1,1 0,-3A3,3 0 0,1 3,0Z" style="opacity: 1; stroke-width: 0px; fill: rgb(64, 64, 102); fill-opacity: 1;"/><path class="point" transform="translate(259.08,176.98)" d="M3,0A3,3 0 1,1 0,-3A3,3 0 0,1 3,0Z" style="opacity: 1; stroke-width: 0px; fill: rgb(64, 64, 102); fill-opacity: 1;"/><path class="point" transform="translate(509.04,102.25)" d="M3,0A3,3 0 1,1 0,-3A3,3 0 0,1 3,0Z" style="opacity: 1; stroke-width: 0px; fill: rgb(64, 64, 102); fill-opacity: 1;"/><path class="point" transform="translate(402.45,254.48)" d="M3,0A3,3 0 1,1 0,-3A3,3 0 0,1 3,0Z" style="opacity: 1; stroke-width: 0px; fill: rgb(64, 64, 102); fill-opacity: 1;"/><path class="point" transform="translate(298.88,109.59)" d="M3,0A3,3 0 1,1 0,-3A3,3 0 0,1 3,0Z" style="opacity: 1; stroke-width: 0px; fill: rgb(64, 64, 102); fill-opacity: 1;"/><path class="point" transform="translate(397.49,282.37)" d="M3,0A3,3 0 1,1 0,-3A3,3 0 0,1 3,0Z" style="opacity: 1; stroke-width: 0px; fill: rgb(64, 64, 102); fill-opacity: 1;"/><path class="point" transform="translate(361.23,148.74)" d="M3,0A3,3 0 1,1 0,-3A3,3 0 0,1 3,0Z" style="opacity: 1; stroke-width: 0px; fill: rgb(64, 64, 102); fill-opacity: 1;"/><path class="point" transform="translate(294.17,273.22)" d="M3,0A3,3 0 1,1 0,-3A3,3 0 0,1 3,0Z" style="opacity: 1; stroke-width: 0px; fill: rgb(64, 64, 102); fill-opacity: 1;"/><path class="point" transform="translate(307.44,171.26)" d="M3,0A3,3 0 1,1 0,-3A3,3 0 0,1 3,0Z" style="opacity: 1; stroke-width: 0px; fill: rgb(64, 64, 102); fill-opacity: 1;"/><path class="point" transform="translate(511.02,236.41)" d="M3,0A3,3 0 1,1 0,-3A3,3 0 0,1 3,0Z" style="opacity: 1; stroke-width: 0px; fill: rgb(64, 64, 102); fill-opacity: 1;"/><path class="point" transform="translate(112.82,221.93)" d="M3,0A3,3 0 1,1 0,-3A3,3 0 0,1 3,0Z" style="opacity: 1; stroke-width: 0px; fill: rgb(64, 64, 102); fill-opacity: 1;"/><path class="point" transform="translate(482.18,264.74)" d="M3,0A3,3 0 1,1 0,-3A3,3 0 0,1 3,0Z" style="opacity: 1; stroke-width: 0px; fill: rgb(64, 64, 102); fill-opacity: 1;"/><path class="point" transform="translate(597.07,268.75)" d="M3,0A3,3 0 1,1 0,-3A3,3 0 0,1 3,0Z" style="opacity: 1; stroke-width: 0px; fill: rgb(64, 64, 102); fill-opacity: 1;"/><path class="point" transform="translate(328.28,199.26)" d="M3,0A3,3 0 1,1 0,-3A3,3 0 0,1 3,0Z" style="opacity: 1; stroke-width: 0px; fill: rgb(64, 64, 102); fill-opacity: 1;"/><path class="point" transform="translate(345.41,114.76)" d="M3,0A3,3 0 1,1 0,-3A3,3 0 0,1 3,0Z" style="opacity: 1; stroke-width: 0px; fill: rgb(64, 64, 102); fill-opacity: 1;"/><path class="point" transform="translate(370.6,161.26)" d="M3,0A3,3 0 1,1 0,-3A3,3 0 0,1 3,0Z" style="opacity: 1; stroke-width: 0px; fill: rgb(64, 64, 102); fill-opacity: 1;"/><path class="point" transform="translate(209.44,87.56)" d="M3,0A3,3 0 1,1 0,-3A3,3 0 0,1 3,0Z" style="opacity: 1; stroke-width: 0px; fill: rgb(64, 64, 102); fill-opacity: 1;"/><path class="point" transform="translate(409.83,128.15)" d="M3,0A3,3 0 1,1 0,-3A3,3 0 0,1 3,0Z" style="opacity: 1; stroke-width: 0px; fill: rgb(64, 64, 102); fill-opacity: 1;"/><path class="point" transform="translate(415.52,214.99)" d="M3,0A3,3 0 1,1 0,-3A3,3 0 0,1 3,0Z" style="opacity: 1; stroke-width: 0px; fill: rgb(64, 64, 102); fill-opacity: 1;"/><path class="point" transform="translate(455.13,90.14)" d="M3,0A3,3 0 1,1 0,-3A3,3 0 0,1 3,0Z" style="opacity: 1; stroke-width: 0px; fill: rgb(64, 64, 102); fill-opacity: 1;"/><path class="point" transform="translate(483.98,167.46)" d="M3,0A3,3 0 1,1 0,-3A3,3 0 0,1 3,0Z" style="opacity: 1; stroke-width: 0px; fill: rgb(64, 64, 102); fill-opacity: 1;"/><path class="point" transform="translate(269.07,350.46)" d="M3,0A3,3 0 1,1 0,-3A3,3 0 0,1 3,0Z" style="opacity: 1; stroke-width: 0px; fill: rgb(64, 64, 102); fill-opacity: 1;"/><path class="point" transform="translate(399.53,161.1)" d="M3,0A3,3 0 1,1 0,-3A3,3 0 0,1 3,0Z" style="opacity: 1; stroke-width: 0px; fill: rgb(64, 64, 102); fill-opacity: 1;"/><path class="point" transform="translate(175.56,102.57)" d="M3,0A3,3 0 1,1 0,-3A3,3 0 0,1 3,0Z" style="opacity: 1; stroke-width: 0px; fill: rgb(64, 64, 102); fill-opacity: 1;"/><path class="point" transform="translate(378.17,151.82)" d="M3,0A3,3 0 1,1 0,-3A3,3 0 0,1 3,0Z" style="opacity: 1; stroke-width: 0px; fill: rgb(64, 64, 102); fill-opacity: 1;"/><path class="point" transform="translate(349.51,184.64)" d="M3,0A3,3 0 1,1 0,-3A3,3 0 0,1 3,0Z" style="opacity: 1; stroke-width: 0px; fill: rgb(64, 64, 102); fill-opacity: 1;"/><path class="point" transform="translate(252.92,163.14)" d="M3,0A3,3 0 1,1 0,-3A3,3 0 0,1 3,0Z" style="opacity: 1; stroke-width: 0px; fill: rgb(64, 64, 102); fill-opacity: 1;"/><path class="point" transform="translate(342.24,105.6)" d="M3,0A3,3 0 1,1 0,-3A3,3 0 0,1 3,0Z" style="opacity: 1; stroke-width: 0px; fill: rgb(64, 64, 102); fill-opacity: 1;"/><path class="point" transform="translate(197.36,278.8)" d="M3,0A3,3 0 1,1 0,-3A3,3 0 0,1 3,0Z" style="opacity: 1; stroke-width: 0px; fill: rgb(64, 64, 102); fill-opacity: 1;"/><path class="point" transform="translate(294.78,104.84)" d="M3,0A3,3 0 1,1 0,-3A3,3 0 0,1 3,0Z" style="opacity: 1; stroke-width: 0px; fill: rgb(64, 64, 102); fill-opacity: 1;"/></g><g class="text"/></g></g></g></g><g class="zerolinelayer-above"/><path class="xlines-above crisp" d="M0,0" style="fill: none;"/><path class="ylines-above crisp" d="M0,0" style="fill: none;"/><g class="overlines-above"/><g class="xaxislayer-above"><g class="xtick"><text text-anchor="middle" x="0" y="534" transform="translate(191.76999999999998,0)" style="font-family: 'Open Sans', verdana, arial, sans-serif; font-size: 13px; fill: rgb(36, 54, 75); fill-opacity: 1; white-space: pre;">−2</text></g><g class="xtick"><text text-anchor="middle" x="0" y="534" style="font-family: 'Open Sans', verdana, arial, sans-serif; font-size: 13px; fill: rgb(36, 54, 75); fill-opacity: 1; white-space: pre;" transform="translate(329.5,0)">−1</text></g><g class="xtick"><text text-anchor="middle" x="0" y="534" style="font-family: 'Open Sans', verdana, arial, sans-serif; font-size: 13px; fill: rgb(36, 54, 75); fill-opacity: 1; white-space: pre;" transform="translate(467.23,0)">0</text></g><g class="xtick"><text text-anchor="middle" x="0" y="534" style="font-family: 'Open Sans', verdana, arial, sans-serif; font-size: 13px; fill: rgb(36, 54, 75); fill-opacity: 1; white-space: pre;" transform="translate(604.96,0)">1</text></g><g class="xtick"><text text-anchor="middle" x="0" y="534" style="font-family: 'Open Sans', verdana, arial, sans-serif; font-size: 13px; fill: rgb(36, 54, 75); fill-opacity: 1; white-space: pre;" transform="translate(742.69,0)">2</text></g></g><g class="yaxislayer-above"><g class="ytick"><text text-anchor="end" x="79" y="4.55" transform="translate(0,477.6)" style="font-family: 'Open Sans', verdana, arial, sans-serif; font-size: 13px; fill: rgb(36, 54, 75); fill-opacity: 1; white-space: pre;">−3</text></g><g class="ytick"><text text-anchor="end" x="79" y="4.55" style="font-family: 'Open Sans', verdana, arial, sans-serif; font-size: 13px; fill: rgb(36, 54, 75); fill-opacity: 1; white-space: pre;" transform="translate(0,407.38)">−2</text></g><g class="ytick"><text text-anchor="end" x="79" y="4.55" style="font-family: 'Open Sans', verdana, arial, sans-serif; font-size: 13px; fill: rgb(36, 54, 75); fill-opacity: 1; white-space: pre;" transform="translate(0,337.15999999999997)">−1</text></g><g class="ytick"><text text-anchor="end" x="79" y="4.55" style="font-family: 'Open Sans', verdana, arial, sans-serif; font-size: 13px; fill: rgb(36, 54, 75); fill-opacity: 1; white-space: pre;" transform="translate(0,266.95)">0</text></g><g class="ytick"><text text-anchor="end" x="79" y="4.55" style="font-family: 'Open Sans', verdana, arial, sans-serif; font-size: 13px; fill: rgb(36, 54, 75); fill-opacity: 1; white-space: pre;" transform="translate(0,196.73000000000002)">1</text></g><g class="ytick"><text text-anchor="end" x="79" y="4.55" style="font-family: 'Open Sans', verdana, arial, sans-serif; font-size: 13px; fill: rgb(36, 54, 75); fill-opacity: 1; white-space: pre;" transform="translate(0,126.52)">2</text></g></g><g class="overaxes-above"/></g></g><g class="polarlayer"/><g class="smithlayer"/><g class="ternarylayer"/><g class="geolayer"/><g class="funnelarealayer"/><g class="pielayer"/><g class="iciclelayer"/><g class="treemaplayer"/><g class="sunburstlayer"/><g class="glimages"/><defs id="topdefs-cf7568"><g class="clips"/><clipPath id="legendcf7568"><rect width="56" height="111" x="0" y="0"/></clipPath></defs><g class="layer-above"><g class="imagelayer"/><g class="shapelayer"/></g><g class="infolayer"><g class="legend" pointer-events="all" transform="translate(831.74,100)"><rect class="bg" shape-rendering="crispEdges" width="56" height="111" x="0" y="0" style="stroke: rgb(68, 68, 68); stroke-opacity: 1; fill: rgb(247, 249, 252); fill-opacity: 1; stroke-width: 0px;"/><g class="scrollbox" transform="" clip-path="url(#legendcf7568)"><text class="legendtitletext" text-anchor="start" x="2" y="20.8" style="font-family: 'Open Sans', verdana, arial, sans-serif; font-size: 16px; fill: rgb(36, 54, 75); fill-opacity: 1; white-space: pre;">cat</text><g class="groups" transform=""><g class="traces" transform="translate(0,35.75)" style="opacity: 1;"><text class="legendtext" text-anchor="start" x="40" y="5.07" style="font-family: 'Open Sans', verdana, arial, sans-serif; font-size: 13px; fill: rgb(36, 54, 75); fill-opacity: 1; white-space: pre;">B</text><g class="layers" style="opacity: 1;"><g class="legendfill"/><g class="legendlines"/><g class="legendsymbols"><g class="legendpoints"><path class="scatterpts" transform="translate(20,0)" d="M3,0A3,3 0 1,1 0,-3A3,3 0 0,1 3,0Z" style="opacity: 1; stroke-width: 0px; fill: rgb(48, 89, 138); fill-opacity: 1;"/></g></g></g><rect class="legendtoggle" x="0" y="-9.950000000000001" width="50.03125" height="19.900000000000002" style="fill: rgb(0, 0, 0); fill-opacity: 0;"/></g></g><g class="groups" transform=""><g class="traces" transform="translate(0,55.650000000000006)" style="opacity: 1;"><text class="legendtext" text-anchor="start" x="40" y="5.07" style="font-family: 'Open Sans', verdana, arial, sans-serif; font-size: 13px; fill: rgb(36, 54, 75); fill-opacity: 1; white-space: pre;">D</text><g class="layers" style="opacity: 1;"><g class="legendfill"/><g class="legendlines"/><g class="legendsymbols"><g class="legendpoints"><path class="scatterpts" transform="translate(20,0)" d="M3,0A3,3 0 1,1 0,-3A3,3 0 0,1 3,0Z" style="opacity: 1; stroke-width: 0px; fill: rgb(114, 191, 237); fill-opacity: 1;"/></g></g></g><rect class="legendtoggle" x="0" y="-9.950000000000001" width="50.03125" height="19.900000000000002" style="fill: rgb(0, 0, 0); fill-opacity: 0;"/></g></g><g class="groups" transform=""><g class="traces" transform="translate(0,75.55000000000001)" style="opacity: 1;"><text class="legendtext" text-anchor="start" x="40" y="5.07" style="font-family: 'Open Sans', verdana, arial, sans-serif; font-size: 13px; fill: rgb(36, 54, 75); fill-opacity: 1; white-space: pre;">A</text><g class="layers" style="opacity: 1;"><g class="legendfill"/><g class="legendlines"/><g class="legendsymbols"><g class="legendpoints"><path class="scatterpts" transform="translate(20,0)" d="M3,0A3,3 0 1,1 0,-3A3,3 0 0,1 3,0Z" style="opacity: 1; stroke-width: 0px; fill: rgb(226, 122, 55); fill-opacity: 1;"/></g></g></g><rect class="legendtoggle" x="0" y="-9.950000000000001" width="50.03125" height="19.900000000000002" style="fill: rgb(0, 0, 0); fill-opacity: 0;"/></g></g><g class="groups" transform=""><g class="traces" transform="translate(0,95.45)" style="opacity: 1;"><text class="legendtext" text-anchor="start" x="40" y="5.07" style="font-family: 'Open Sans', verdana, arial, sans-serif; font-size: 13px; fill: rgb(36, 54, 75); fill-opacity: 1; white-space: pre;">C</text><g class="layers" style="opacity: 1;"><g class="legendfill"/><g class="legendlines"/><g class="legendsymbols"><g class="legendpoints"><path class="scatterpts" transform="translate(20,0)" d="M3,0A3,3 0 1,1 0,-3A3,3 0 0,1 3,0Z" style="opacity: 1; stroke-width: 0px; fill: rgb(64, 64, 102); fill-opacity: 1;"/></g></g></g><rect class="legendtoggle" x="0" y="-9.950000000000001" width="50.03125" height="19.900000000000002" style="fill: rgb(0, 0, 0); fill-opacity: 0;"/></g></g></g><rect class="scrollbar" rx="20" ry="3" width="0" height="0" x="0" y="0" style="fill: rgb(128, 139, 164); fill-opacity: 1;"/></g><g class="g-gtitle"><text class="gtitle" x="450" y="50" text-anchor="middle" dy="0em" style="opacity: 1; font-family: 'Open Sans', verdana, arial, sans-serif; font-size: 18px; fill: rgb(36, 54, 75); fill-opacity: 1; white-space: pre;">calmplots Plotly Scatter</text></g><g class="g-xtitle"><text class="xtitle" x="448.5" y="578" text-anchor="middle" style="opacity: 1; font-family: 'Open Sans', verdana, arial, sans-serif; font-size: 16px; fill: rgb(36, 54, 75); fill-opacity: 1; white-space: pre;">x</text></g><g class="g-ytitle"><text class="ytitle" transform="rotate(-90,38,310)" x="38" y="310" text-anchor="middle" style="opacity: 1; font-family: 'Open Sans', verdana, arial, sans-serif; font-size: 16px; fill: rgb(36, 54, 75); fill-opacity: 1; white-space: pre;">y</text></g></g></svg>
